<svg class="icon-l icon svg-icon picto_objet_multicompte" aria-hidden="true" xmlns="http://www.w3.org/2000/svg" width="80" height="80" viewBox="0 0 80 80">
  <g fill="none">
    <path fill="#DB0029" d="M62,20.2 C64.5618552,20.2 66.668833,22.2117307 66.7948643,24.780749 L66.8,25 L66.8,47 C66.8,49.5618552 64.7882693,51.668833 62.219251,51.7948643 L61.9997333,51.8 L59.799,51.798 L59.8,55 C59.8,57.579319 57.765561,59.6834694 55.2138108,59.7953232 L55,59.8 L18,59.8 C15.420681,59.8 13.3165306,57.765561 13.2046768,55.2138108 L13.2,55 L13.2,33 C13.2,30.420681 15.234439,28.3165306 17.7861892,28.2046768 L18,28.2 L21.2,28.2 L21.2,25 C21.2,22.4381448 23.2117307,20.331167 25.780749,20.2051357 L26,20.2 L62,20.2 Z M18,29.8 C16.2936306,29.8 14.899204,31.1355862 14.8050656,32.8184134 L14.8,33 L14.8,55 C14.8,56.7063694 16.1355862,58.100796 17.8184134,58.1949344 L18,58.2 L55,58.2 C56.7063694,58.2 58.100796,56.8644138 58.1949344,55.1815866 L58.2,55 L58.2,33 C58.2,31.2936306 56.8644138,29.899204 55.1815866,29.8050656 L55,29.8 L18,29.8 Z M59.8,33 L59.8,50.1993329 L61.9803894,50.2002404 L62.1603658,50.1960693 C63.8586345,50.1125953 65.2002404,48.7077217 65.2002404,47 L65.2002404,25.0196106 L65.1960693,24.8396342 C65.1125953,23.1413655 63.7077217,21.7997596 62,21.7997596 L26.0196106,21.7997596 L25.8396342,21.8039307 C24.1413655,21.8874047 22.8,23.2922783 22.8,25 L22.8,28.2 L55,28.2 C57.6509668,28.2 59.8,30.3490332 59.8,33 Z"></path>
    <path fill="#333" d="M42.8989763,49.2 C43.3408041,49.2 43.6989763,49.5581722 43.6989763,50 C43.6989763,50.407841 43.3937881,50.7444016 42.9993266,50.7937669 L42.8989763,50.8 L19,50.8 C18.5581722,50.8 18.2,50.4418278 18.2,50 C18.2,49.592159 18.5051881,49.2555984 18.8996497,49.2062331 L19,49.2 L42.8989763,49.2 Z M26,36 C27.0543618,36 27.9181651,36.8158778 27.9945143,37.8507377 L28,38 L28,43 C28,44.0543618 27.1841222,44.9181651 26.1492623,44.9945143 L26,45 L20,45 C18.9456382,45 18.0818349,44.1841222 18.0054857,43.1492623 L18,43 L18,38 C18,36.9456382 18.8158778,36.0818349 19.8507377,36.0054857 L20,36 L26,36 Z M26,37.6 L20,37.6 C19.8067003,37.6 19.6454251,37.7371128 19.6081266,37.919386 L19.6,38 L19.6,43 C19.6,43.1932997 19.7371128,43.3545749 19.919386,43.3918734 L20,43.4 L26,43.4 C26.1932997,43.4 26.3545749,43.2628872 26.3918734,43.080614 L26.4,43 L26.4,38 C26.4,37.8067003 26.2628872,37.6454251 26.080614,37.6081266 L26,37.6 Z"></path>
  </g>
</svg>