							<svg class="icon-m icon svg-icon picto_objet_mobile_ok" aria-hidden="true" xmlns="http://www.w3.org/2000/svg" width="80" height="80" viewbox="0 0 80 80">
  <g fill="none">
    <path fill="#333" d="M58,56 C58.4418278,56 58.8,56.3581722 58.8,56.8 C58.8,57.207841 58.4948119,57.5444016 58.1003503,57.5937669 L58,57.6 L22,57.6 C21.5581722,57.6 21.2,57.2418278 21.2,56.8 C21.2,56.392159 21.5051881,56.0555984 21.8996497,56.0062331 L22,56 L58,56 Z M62.5059995,37.4448199 C62.7847427,37.7340159 62.8023796,38.178857 62.5642777,38.4877134 L62.4851803,38.5759991 L58.3351803,42.5759991 C58.0449218,42.8557664 57.598131,42.8723703 57.2893314,42.6319965 L57.2011258,42.5521813 L55.0911258,40.3401813 C54.7861644,40.0204777 54.7981153,39.5140867 55.1178189,39.2091253 C55.4084585,38.9318877 55.8533852,38.9165611 56.161001,39.1562637 L56.2488748,39.2358185 L57.8030003,40.8659999 L61.3748203,37.4240006 C61.6929359,37.1173831 62.1993821,37.1267042 62.5059995,37.4448199 Z"/>
    <path fill="#DB0029" d="M54,13.2 C56.579319,13.2 58.6834694,15.234439 58.7953232,17.7861892 L58.8,18 L58.7997889,28.2234027 C64.9676537,28.6098754 69.8505371,33.7347084 69.8505371,40 C69.8505371,46.2652916 64.9676537,51.3901246 58.7997889,51.7765973 L58.8,64 C58.8,66.579319 56.765561,68.6834694 54.2138108,68.7953232 L54,68.8 L26,68.8 C23.420681,68.8 21.3165306,66.765561 21.2046768,64.2138108 L21.2,64 L21.2,18 C21.2,15.420681 23.234439,13.3165306 25.7861892,13.2046768 L26,13.2 L54,13.2 Z M54,14.8 L26,14.8 C24.2936306,14.8 22.899204,16.1355862 22.8050656,17.8184134 L22.8,18 L22.8,64 C22.8,65.7063694 24.1355862,67.100796 25.8184134,67.1949344 L26,67.2 L54,67.2 C55.7063694,67.2 57.100796,65.8644138 57.1949344,64.1815866 L57.2,64 L57.1993668,51.7697721 C51.0797166,51.3335691 46.2505371,46.2307422 46.2505371,40 C46.2505371,33.7692578 51.0797166,28.6664309 57.1993668,28.2302279 L57.2,18 C57.2,16.2936306 55.8644138,14.899204 54.1815866,14.8050656 L54,14.8 Z M40,59.2 C41.8225397,59.2 43.3,60.6774603 43.3,62.5 C43.3,64.3225397 41.8225397,65.8 40,65.8 C38.1774603,65.8 36.7,64.3225397 36.7,62.5 C36.7,60.6774603 38.1774603,59.2 40,59.2 Z M40,60.8 C39.0611159,60.8 38.3,61.5611159 38.3,62.5 C38.3,63.4388841 39.0611159,64.2 40,64.2 C40.9388841,64.2 41.7,63.4388841 41.7,62.5 C41.7,61.5611159 40.9388841,60.8 40,60.8 Z M58.0505371,29.8 C52.4172327,29.8 47.8505371,34.3666956 47.8505371,40 C47.8505371,45.6333044 52.4172327,50.2 58.0505371,50.2 C63.6838416,50.2 68.2505371,45.6333044 68.2505371,40 C68.2505371,34.3666956 63.6838416,29.8 58.0505371,29.8 Z"/>
  </g>
</svg>